<?xml version="1.0" standalone="no"?>
<!DOCTYPE svg PUBLIC "-//W3C//DTD SVG 20010904//EN"
 "http://www.w3.org/TR/2001/REC-SVG-20010904/DTD/svg10.dtd">
<svg version="1.0" xmlns="http://www.w3.org/2000/svg"
 width="1016.000000pt" height="1016.000000pt" viewBox="0 0 1016.000000 1016.000000"
 preserveAspectRatio="xMidYMid meet">
<metadata>
Created by potrace 1.11, written by Peter Selinger 2001-2013
</metadata>
<g transform="translate(0.000000,1016.000000) scale(0.100000,-0.100000)"
fill="#000000" stroke="none">
<path d="M2989 7710 c-3 -14 -4 -5208 -1 -5225 3 -20 10 -20 345 -19 188 1
347 2 353 3 7 1 10 330 9 1099 0 603 1 1102 2 1107 4 11 809 12 938 0 208 -18
416 -92 533 -189 111 -91 237 -251 346 -439 32 -53 177 -337 323 -630 316
-634 323 -649 356 -709 14 -27 24 -48 23 -48 -2 0 12 -28 30 -62 19 -35 40
-79 49 -98 l15 -35 380 0 c209 0 380 2 380 5 0 7 -374 756 -392 785 -7 11 -13
22 -13 25 -3 13 -53 111 -62 122 -6 7 -12 20 -15 28 -2 8 -40 87 -84 175 -45
88 -83 165 -84 170 -1 6 -11 22 -22 38 -11 15 -16 27 -12 27 3 0 2 6 -4 13
-17 20 -82 151 -82 165 0 6 -4 12 -9 12 -5 0 -17 20 -28 45 -10 25 -21 45 -25
45 -5 0 -8 5 -8 10 0 19 -166 285 -202 324 -10 11 -18 26 -18 33 0 7 -4 13 -8
13 -4 0 -26 23 -47 52 -53 70 -201 216 -256 253 -24 16 -46 33 -49 37 -3 3
-38 22 -78 41 -65 31 -90 52 -63 52 5 0 13 3 17 7 4 5 14 8 22 8 24 0 192 77
262 120 90 55 206 153 260 218 25 30 51 60 58 68 6 7 12 17 12 22 0 6 4 12 8
14 22 9 120 196 132 253 1 6 5 15 9 20 5 6 12 24 16 40 5 17 9 35 11 40 12 39
25 96 30 130 3 22 7 46 10 54 10 30 18 163 17 291 -1 165 -9 261 -34 380 -5
25 -11 56 -13 70 -23 133 -140 387 -231 500 -57 71 -199 202 -270 248 -176
116 -416 208 -645 246 -14 3 -25 5 -25 6 0 1 -11 3 -25 4 -14 2 -45 6 -70 10
-51 8 -93 12 -230 22 -108 8 -1839 12 -1841 4z m1845 -594 c162 -20 367 -96
471 -175 62 -47 165 -151 165 -167 0 -6 9 -19 20 -29 11 -10 17 -22 14 -26 -3
-5 -1 -9 4 -9 11 0 67 -139 86 -215 38 -151 41 -401 6 -560 -15 -74 -62 -205
-72 -205 -5 0 -7 -4 -4 -8 7 -12 -90 -150 -138 -197 -153 -147 -349 -224 -641
-251 -115 -11 -1036 -10 -1043 1 -6 10 -10 1809 -3 1838 3 17 29 18 540 14
295 -2 563 -7 595 -11z"/>
</g>
</svg>
